<mxfile host="app.diagrams.net" modified="2022-10-29T08:38:12.980Z" agent="5.0 (Windows NT 10.0; Win64; x64) AppleWebKit/537.36 (KHTML, like Gecko) Chrome/106.0.0.0 Safari/537.36" etag="RdqGR119wljeh1txVBmm" version="20.5.1" type="github">
  <diagram id="C5RBs43oDa-KdzZeNtuy" name="Page-1">
    <mxGraphModel dx="809" dy="451" grid="1" gridSize="10" guides="1" tooltips="1" connect="1" arrows="1" fold="1" page="1" pageScale="1" pageWidth="827" pageHeight="1169" math="0" shadow="0">
      <root>
        <mxCell id="WIyWlLk6GJQsqaUBKTNV-0" />
        <mxCell id="WIyWlLk6GJQsqaUBKTNV-1" parent="WIyWlLk6GJQsqaUBKTNV-0" />
        <mxCell id="WIyWlLk6GJQsqaUBKTNV-2" value="" style="rounded=0;html=1;jettySize=auto;orthogonalLoop=1;fontSize=11;endArrow=classic;endFill=1;endSize=8;strokeWidth=1;shadow=0;labelBackgroundColor=none;edgeStyle=orthogonalEdgeStyle;" parent="WIyWlLk6GJQsqaUBKTNV-1" source="WIyWlLk6GJQsqaUBKTNV-3" target="WIyWlLk6GJQsqaUBKTNV-6" edge="1">
          <mxGeometry relative="1" as="geometry" />
        </mxCell>
        <mxCell id="WIyWlLk6GJQsqaUBKTNV-3" value="进入低功耗处理" style="rounded=1;whiteSpace=wrap;html=1;fontSize=12;glass=0;strokeWidth=1;shadow=0;" parent="WIyWlLk6GJQsqaUBKTNV-1" vertex="1">
          <mxGeometry x="160" y="80" width="120" height="40" as="geometry" />
        </mxCell>
        <mxCell id="DTeyw1H46ixX3fyR-VZc-5" value="" style="edgeStyle=orthogonalEdgeStyle;rounded=0;orthogonalLoop=1;jettySize=auto;html=1;" edge="1" parent="WIyWlLk6GJQsqaUBKTNV-1" source="WIyWlLk6GJQsqaUBKTNV-6" target="DTeyw1H46ixX3fyR-VZc-4">
          <mxGeometry relative="1" as="geometry" />
        </mxCell>
        <mxCell id="DTeyw1H46ixX3fyR-VZc-7" value="" style="edgeStyle=orthogonalEdgeStyle;rounded=0;orthogonalLoop=1;jettySize=auto;html=1;" edge="1" parent="WIyWlLk6GJQsqaUBKTNV-1" source="WIyWlLk6GJQsqaUBKTNV-6" target="DTeyw1H46ixX3fyR-VZc-6">
          <mxGeometry relative="1" as="geometry" />
        </mxCell>
        <mxCell id="WIyWlLk6GJQsqaUBKTNV-6" value="是否需要掉电主动上报" style="rhombus;whiteSpace=wrap;html=1;shadow=0;fontFamily=Helvetica;fontSize=12;align=center;strokeWidth=1;spacing=6;spacingTop=-4;rounded=1;" parent="WIyWlLk6GJQsqaUBKTNV-1" vertex="1">
          <mxGeometry x="138.75" y="160" width="162.5" height="60" as="geometry" />
        </mxCell>
        <mxCell id="DTeyw1H46ixX3fyR-VZc-4" value="通过上行口发送掉电主动上报帧" style="rounded=1;whiteSpace=wrap;html=1;shadow=0;strokeWidth=1;spacing=6;spacingTop=-4;" vertex="1" parent="WIyWlLk6GJQsqaUBKTNV-1">
          <mxGeometry x="330" y="160" width="100" height="60" as="geometry" />
        </mxCell>
        <mxCell id="DTeyw1H46ixX3fyR-VZc-12" value="" style="edgeStyle=orthogonalEdgeStyle;rounded=0;orthogonalLoop=1;jettySize=auto;html=1;" edge="1" parent="WIyWlLk6GJQsqaUBKTNV-1" source="DTeyw1H46ixX3fyR-VZc-6" target="DTeyw1H46ixX3fyR-VZc-11">
          <mxGeometry relative="1" as="geometry" />
        </mxCell>
        <mxCell id="DTeyw1H46ixX3fyR-VZc-6" value="配置好外设时钟、RTC、TBS、PMU、NVIC后，切换到LRC时钟进入休眠" style="rounded=1;whiteSpace=wrap;html=1;shadow=0;strokeWidth=1;spacing=6;spacingTop=-4;" vertex="1" parent="WIyWlLk6GJQsqaUBKTNV-1">
          <mxGeometry x="145" y="250" width="150" height="70" as="geometry" />
        </mxCell>
        <mxCell id="DTeyw1H46ixX3fyR-VZc-16" value="" style="edgeStyle=orthogonalEdgeStyle;rounded=0;orthogonalLoop=1;jettySize=auto;html=1;" edge="1" parent="WIyWlLk6GJQsqaUBKTNV-1" source="DTeyw1H46ixX3fyR-VZc-11" target="DTeyw1H46ixX3fyR-VZc-15">
          <mxGeometry relative="1" as="geometry" />
        </mxCell>
        <mxCell id="DTeyw1H46ixX3fyR-VZc-22" value="" style="edgeStyle=orthogonalEdgeStyle;rounded=0;orthogonalLoop=1;jettySize=auto;html=1;endArrow=classic;endFill=1;" edge="1" parent="WIyWlLk6GJQsqaUBKTNV-1" source="DTeyw1H46ixX3fyR-VZc-11" target="DTeyw1H46ixX3fyR-VZc-21">
          <mxGeometry relative="1" as="geometry" />
        </mxCell>
        <mxCell id="DTeyw1H46ixX3fyR-VZc-11" value="被唤醒" style="rhombus;whiteSpace=wrap;html=1;rounded=1;shadow=0;strokeWidth=1;spacing=6;spacingTop=-4;" vertex="1" parent="WIyWlLk6GJQsqaUBKTNV-1">
          <mxGeometry x="165" y="340" width="110" height="50" as="geometry" />
        </mxCell>
        <mxCell id="DTeyw1H46ixX3fyR-VZc-13" value="Y" style="text;html=1;align=center;verticalAlign=middle;resizable=0;points=[];autosize=1;strokeColor=none;fillColor=none;" vertex="1" parent="WIyWlLk6GJQsqaUBKTNV-1">
          <mxGeometry x="295" y="160" width="30" height="30" as="geometry" />
        </mxCell>
        <mxCell id="DTeyw1H46ixX3fyR-VZc-14" value="N" style="text;html=1;align=center;verticalAlign=middle;resizable=0;points=[];autosize=1;strokeColor=none;fillColor=none;" vertex="1" parent="WIyWlLk6GJQsqaUBKTNV-1">
          <mxGeometry x="190" y="215" width="30" height="30" as="geometry" />
        </mxCell>
        <mxCell id="DTeyw1H46ixX3fyR-VZc-18" style="edgeStyle=orthogonalEdgeStyle;rounded=0;orthogonalLoop=1;jettySize=auto;html=1;exitX=0;exitY=0.5;exitDx=0;exitDy=0;entryX=0;entryY=0.5;entryDx=0;entryDy=0;" edge="1" parent="WIyWlLk6GJQsqaUBKTNV-1" source="DTeyw1H46ixX3fyR-VZc-15" target="DTeyw1H46ixX3fyR-VZc-11">
          <mxGeometry relative="1" as="geometry" />
        </mxCell>
        <mxCell id="DTeyw1H46ixX3fyR-VZc-15" value="继续休眠" style="whiteSpace=wrap;html=1;rounded=1;shadow=0;strokeWidth=1;spacing=6;spacingTop=-4;" vertex="1" parent="WIyWlLk6GJQsqaUBKTNV-1">
          <mxGeometry x="185" y="410" width="70" height="30" as="geometry" />
        </mxCell>
        <mxCell id="DTeyw1H46ixX3fyR-VZc-17" value="N" style="text;html=1;align=center;verticalAlign=middle;resizable=0;points=[];autosize=1;strokeColor=none;fillColor=none;" vertex="1" parent="WIyWlLk6GJQsqaUBKTNV-1">
          <mxGeometry x="190" y="380" width="30" height="30" as="geometry" />
        </mxCell>
        <mxCell id="DTeyw1H46ixX3fyR-VZc-25" value="" style="edgeStyle=orthogonalEdgeStyle;rounded=0;orthogonalLoop=1;jettySize=auto;html=1;endArrow=classic;endFill=1;" edge="1" parent="WIyWlLk6GJQsqaUBKTNV-1" source="DTeyw1H46ixX3fyR-VZc-21" target="DTeyw1H46ixX3fyR-VZc-24">
          <mxGeometry relative="1" as="geometry" />
        </mxCell>
        <mxCell id="DTeyw1H46ixX3fyR-VZc-28" value="" style="edgeStyle=orthogonalEdgeStyle;rounded=0;orthogonalLoop=1;jettySize=auto;html=1;endArrow=classic;endFill=1;" edge="1" parent="WIyWlLk6GJQsqaUBKTNV-1" source="DTeyw1H46ixX3fyR-VZc-21" target="DTeyw1H46ixX3fyR-VZc-27">
          <mxGeometry relative="1" as="geometry" />
        </mxCell>
        <mxCell id="DTeyw1H46ixX3fyR-VZc-21" value="外部上电，PMU唤醒" style="rhombus;whiteSpace=wrap;html=1;rounded=1;shadow=0;strokeWidth=1;spacing=6;spacingTop=-4;" vertex="1" parent="WIyWlLk6GJQsqaUBKTNV-1">
          <mxGeometry x="324" y="323.75" width="90" height="82.5" as="geometry" />
        </mxCell>
        <mxCell id="DTeyw1H46ixX3fyR-VZc-23" value="Y" style="text;html=1;align=center;verticalAlign=middle;resizable=0;points=[];autosize=1;strokeColor=none;fillColor=none;" vertex="1" parent="WIyWlLk6GJQsqaUBKTNV-1">
          <mxGeometry x="280" y="340" width="30" height="30" as="geometry" />
        </mxCell>
        <mxCell id="DTeyw1H46ixX3fyR-VZc-24" value="退出低功耗模式" style="whiteSpace=wrap;html=1;rounded=1;shadow=0;strokeWidth=1;spacing=6;spacingTop=-4;" vertex="1" parent="WIyWlLk6GJQsqaUBKTNV-1">
          <mxGeometry x="450" y="347.5" width="101" height="35" as="geometry" />
        </mxCell>
        <mxCell id="DTeyw1H46ixX3fyR-VZc-26" value="Y" style="text;html=1;align=center;verticalAlign=middle;resizable=0;points=[];autosize=1;strokeColor=none;fillColor=none;" vertex="1" parent="WIyWlLk6GJQsqaUBKTNV-1">
          <mxGeometry x="414" y="340" width="30" height="30" as="geometry" />
        </mxCell>
        <mxCell id="DTeyw1H46ixX3fyR-VZc-30" value="" style="edgeStyle=orthogonalEdgeStyle;rounded=0;orthogonalLoop=1;jettySize=auto;html=1;endArrow=classic;endFill=1;" edge="1" parent="WIyWlLk6GJQsqaUBKTNV-1" source="DTeyw1H46ixX3fyR-VZc-27">
          <mxGeometry relative="1" as="geometry">
            <mxPoint x="444" y="469.9999999999999" as="targetPoint" />
          </mxGeometry>
        </mxCell>
        <mxCell id="DTeyw1H46ixX3fyR-VZc-35" value="" style="edgeStyle=orthogonalEdgeStyle;rounded=0;orthogonalLoop=1;jettySize=auto;html=1;endArrow=classic;endFill=1;" edge="1" parent="WIyWlLk6GJQsqaUBKTNV-1" source="DTeyw1H46ixX3fyR-VZc-27" target="DTeyw1H46ixX3fyR-VZc-34">
          <mxGeometry relative="1" as="geometry" />
        </mxCell>
        <mxCell id="DTeyw1H46ixX3fyR-VZc-27" value="RTC中断唤醒" style="rhombus;whiteSpace=wrap;html=1;rounded=1;shadow=0;strokeWidth=1;spacing=6;spacingTop=-4;" vertex="1" parent="WIyWlLk6GJQsqaUBKTNV-1">
          <mxGeometry x="323" y="430" width="91" height="80" as="geometry" />
        </mxCell>
        <mxCell id="DTeyw1H46ixX3fyR-VZc-31" value="Y" style="text;html=1;align=center;verticalAlign=middle;resizable=0;points=[];autosize=1;strokeColor=none;fillColor=none;" vertex="1" parent="WIyWlLk6GJQsqaUBKTNV-1">
          <mxGeometry x="414" y="440" width="30" height="30" as="geometry" />
        </mxCell>
        <mxCell id="DTeyw1H46ixX3fyR-VZc-32" value="N" style="text;html=1;align=center;verticalAlign=middle;resizable=0;points=[];autosize=1;strokeColor=none;fillColor=none;" vertex="1" parent="WIyWlLk6GJQsqaUBKTNV-1">
          <mxGeometry x="340" y="400" width="30" height="30" as="geometry" />
        </mxCell>
        <mxCell id="DTeyw1H46ixX3fyR-VZc-33" value="LCD处理，事件&lt;br&gt;动作与电池使用&lt;br&gt;时间累计" style="rounded=1;whiteSpace=wrap;html=1;" vertex="1" parent="WIyWlLk6GJQsqaUBKTNV-1">
          <mxGeometry x="444" y="445" width="126" height="50" as="geometry" />
        </mxCell>
        <mxCell id="DTeyw1H46ixX3fyR-VZc-34" value="液晶按键中断唤醒" style="rhombus;whiteSpace=wrap;html=1;rounded=1;shadow=0;strokeWidth=1;spacing=6;spacingTop=-4;" vertex="1" parent="WIyWlLk6GJQsqaUBKTNV-1">
          <mxGeometry x="318.25" y="530" width="101.5" height="80" as="geometry" />
        </mxCell>
      </root>
    </mxGraphModel>
  </diagram>
</mxfile>
